<svg height="60" viewBox="0 0 180 60" width="180" xmlns="http://www.w3.org/2000/svg"><g fill="none"><path d="m165.2025 0h-150.9c-.5505 0-1.095 0-1.6425.003-.459.003-.915.012-1.3785.0195-1.0072141.01099844-2.01212478.09875262-3.006.2625-.99191147.16831047-1.95273495.48538222-2.85.9405-.89743218.45952994-1.71736524 1.05676514-2.43 1.77-.71511681.70998498-1.3112466 1.53048648-1.7655 2.43-.4558826.89827192-.77202131 1.86085107-.9375 2.8545-.16690805.9925652-.25667659 1.9965686-.2685 3.003-.015.4605-.015.9225-.0225 1.3815v34.6755c.0075.465.009.915.0225 1.3815.01231319 1.0064706.10258329 2.0104748.27 3.003.16441173.9946691.480065 1.958322.936 2.8575.45468468.8960556 1.05140001 1.7126133 1.767 2.418.70912615.7156052 1.5285559 1.3127052 2.427 1.7685.89778859.4560786 1.85902414.7746364 2.8515.945.99397044.1633908 1.9987784.2521389 3.006.2655.465.0105.9195.0165 1.3785.0165.549.003 1.092.003 1.6425.003h150.9c.54 0 1.086 0 1.626-.003.456 0 .9255-.006 1.383-.015 1.005306-.0131595 2.008172-.1024146 3-.267.995511-.1716228 1.960026-.4900947 2.862-.945.897871-.4559979 1.716777-1.0530841 2.4255-1.7685.714348-.70899 1.312666-1.5259844 1.773-2.421.452989-.8997496.76609-1.8633306.9285-2.8575.16698-.9927153.259737-1.9964958.2775-3.003.006-.465.006-.915.006-1.3815.012-.546.012-1.0875.012-1.641v-31.392c0-.549 0-1.095-.012-1.638 0-.459 0-.921-.006-1.38-.017694-1.0070052-.110451-2.01128944-.2775-3.0045-.163497-.99314484-.477081-1.95564918-.93-2.8545-.925533-1.80432776-2.393334-3.27317745-4.197-4.2-.901917-.45409118-1.866536-.77108049-2.862-.9405-.991733-.16494347-1.994703-.25320485-3-.264-.4575-.0075-.927-.0165-1.383-.0195-.54-.003-1.0875-.003-1.626-.003z" fill="#a6a6a6"/><path d="m12.6675 58.6875c-.4575 0-.903-.006-1.356-.015-.9397919-.012621-1.87735757-.0948459-2.805-.246-.86424072-.149066-1.70143793-.4261095-2.484-.822-.77567048-.3923985-1.48320074-.906966-2.0955-1.524-.62090039-.6103571-1.13773032-1.3182114-1.53-2.0955-.39740352-.7819378-.67259925-1.6201719-.816-2.4855-.15405935-.9298473-.23729857-1.8700494-.249-2.8125-.0105-.315-.0225-1.3695-.0225-1.3695v-34.65s.0135-1.038.0225-1.3425c.01117896-.9409217.09391766-1.87962987.2475-2.808.14341722-.86771558.41859342-1.70841933.816-2.493.39106552-.77654769.90521014-1.4846996 1.5225-2.097.61643481-.61833497 1.32606262-1.13613043 2.103-1.5345.78096093-.3946622 1.61679249-.6697332 2.4795-.816.93054072-.15215658 1.871173-.23438669 2.814-.246l1.353-.018h154.1535l1.3695.0195c.933787.0108367 1.865428.09206696 2.787.243.871666.14807719 1.716429.42511456 2.5065.822 1.556728.8023179 2.823403 2.071616 3.6225 3.63.390691.77931872.661252 1.61325202.8025 2.4735.155769.9358908.243001 1.8819054.261 2.8305.0045.4245.0045.882.0045 1.335.012.5625.012 1.098.012 1.638v31.3935c0 .5445 0 1.077-.012 1.6125 0 .4875 0 .9345-.006 1.395-.017087.9314797-.102314 1.8604605-.255 2.7795-.139965.8715918-.41316 1.7164696-.81 2.505-.395502.7688362-.909825 1.4704615-1.524 2.079-.613109.6204867-1.322198 1.1381217-2.1 1.533-.787838.3990876-1.631301.6772085-2.502.825-.927086.1513773-1.864206.2331058-2.8035.2445-.4395.0105-.9.0165-1.3455.0165l-1.626.003z" fill="#000"/><path d="m37.1535 30.45c.0332005-2.5439578 1.3668595-4.893711 3.534-6.2265-1.3734798-1.9617999-3.5913869-3.1613597-5.985-3.237-2.52-.264-4.962 1.5075-6.246 1.5075-1.308 0-3.285-1.482-5.412-1.437-2.8001274.0903754-5.3473266 1.6438651-6.7095 4.092-2.901 5.022-.7365 12.4035 2.0415 16.464 1.3905 1.9875 3.015 4.2075 5.142 4.1295 2.0805-.087 2.8575-1.3275 5.37-1.3275 2.487 0 3.216 1.3275 5.385 1.278 2.2335-.0375 3.639-1.998 4.98-4.005.9997254-1.4161523 1.769228-2.9814825 2.28-4.638-2.6524916-1.121313-4.3772307-3.7202351-4.38-6.6zm-4.098-12.135c1.2173841-1.4609289 1.8173527-3.3388579 1.6725-5.235-1.8600768.1952644-3.5782485 1.0843432-4.812 2.49-1.2179367 1.3858441-1.8352326 3.1988815-1.716 5.04 1.8846628.0194371 3.6741756-.8263938 4.8555-2.295z" fill="#fff"/></g></svg>